<?xml version="1.0" encoding="utf-8"?>
<!-- Generator: Adobe Illustrator 18.1.1, SVG Export Plug-In . SVG Version: 6.00 Build 0)  -->
<svg version="1.1" id="fuck" xmlns="http://www.w3.org/2000/svg" xmlns:xlink="http://www.w3.org/1999/xlink" x="0px" y="0px"
	 viewBox="290 1770 742 784" enable-background="new 290 1770 742 784" xml:space="preserve">
<g>
	<path fill="#FFFFFF" d="M697.3,2332.6c15.4,11.7,26.7,26.6,36.8,42.7c8.9,14.3,18.1,28.2,29.3,40.9c8.5,9.7,12.9,9.2,22.4,0.9
		c10.6-9.1,16.7-21.6,25.6-31.9c3.3-3.8,6.1-4.6,10.3-3.6c9.6,2.3,17.7,6.9,25.2,13.3c11.4,9.7,23,19.1,34.9,28
		c8.1,6,9.4,13.6,7.6,22.3c-4.6,22-7.6,44.2-9.1,66.6c-0.2,3.5-0.8,6.3-5,6.6c-19.3,1.2-37.7,8.8-57.2,8.5c-7.3-0.1-12.5-0.6-16.7-9
		c-13.2-26.6-25.1-54.1-41.4-79.3c-12.9-20.1-27.8-39.1-38.4-60.6C714.1,2362.6,704.1,2348.5,697.3,2332.6z"/>
	<path fill="#FFFFFF" d="M931.8,2336.3c3.8-1.2,5.6,1.6,7.9,3.8c3.5,3.6,6.8,7.3,10.7,10.5c5.3,4.5,9.1,4.8,10-3.8
		c0.3-2.6-1.7-7.7,3.7-8.3c5-0.5,9.7-0.4,13.1,4.9c4.8,7,7.9,14.8,11.2,22.5c17.4,42.2,29.1,85.9,34.1,131.3c0.5,4.6,0,9.4,0.5,14.1
		c0.8,6.3-2.3,9.9-7.3,12.8c-0.8,0.5-1.8,0.7-2.5,1.1c-18.2,10-18.4,10.1-26.6-9.4c-13.2-31.1-29.2-60.4-51.2-86.1
		c-3.8-4.4-5.3-9.9-5.2-15.7c0.2-5.9,0.2-11.9,1.3-17.7c3.8-20-0.1-39.7-1.9-59.5C929.9,2335.8,930.7,2335.8,931.8,2336.3z"/>
	<path fill="#FFFFFF" d="M850.2,2332.7c-19.4,1.4-28.2,16.7-38.4,29.8c-6.6,8.5-11.7,18.3-18,27.1c-7.7,10.8-14.4,11.3-24.8,2.9
		c-15.6-12.6-28.6-27.8-43.2-41.3c-4.3-4-7.8-9-8.8-15.1c-0.5-2.9-1.7-5.4-4.4-6.8c-20.5-10-27.1-31.5-38.9-48.6
		c-8.3-12.1-12.9-26.2-15.5-40.7c-1.4-7.8-1.2-15.4,1.3-23.5c4.9,2.9,8.3,6.9,11.4,11.1c21.4,28.2,46.8,52.3,75.3,73.3
		c5.3,3.8,9.9,8.4,15.2,12.3c8.4,6.1,17.6,11.5,28.3,11c17.4-0.9,34.2,1.8,51,5.5C843.6,2332,848.6,2327.3,850.2,2332.7z"/>
	<path fill="#FCFBFC" d="M386.4,2521.6c-0.4-6.4,0.3-10.9,7.6-14.7c26.8-14.3,56.1-21.9,84.1-33c33.8-13.6,67.6-27,96.5-50.3
		c4-3.3,5.8-8.1,9.7-11.3c2-1.6,3.5-3.6,6.5-2.7c3.1,0.9,3,3.6,3.4,6c2.4,17.7-7.1,30.5-18.7,41.7c-27.1,26.4-60.8,40.1-96.6,50.3
		c-23.6,6.7-46.7,15.2-70,23c-2.3,0.8-4.7,1.7-7,2.3C387.1,2537,387,2536.9,386.4,2521.6z"/>
	<path fill="#FFFFFF" d="M893.7,2321.2c8.8-7,0.6-14.6,1.6-21.9c2.1-14.4,0.1-29.3,3.5-43.7c1.4-6.1,3-14.7,8.2-15.6
		c5.4-0.8,7.2,7.9,9.8,13c5,9.9,10.6,18.8,22.2,22.6c5.4,1.8,9.5,6.2,12.1,12.2c4.1,9.4,9.1,18.4,14.4,27.1c4.7,7.6,2.3,10-5.5,11.4
		c-7.2,1.2-13.3,0.1-19.5-3.8c-9.7-6.2-18.8-13.5-30.5-16.1C909.5,2316.1,900.1,2316.6,893.7,2321.2z"/>
	<path fill="#FFFFFF" d="M920.5,2528.2c-6.4,0.1-12.7-11.4-9-16.8c9.1-13.4,19.3-25.9,33-34.9c8.9-5.9,14.1-4.8,17.5,2.7
		c1.5,3.3,1.5,5.3-1.4,8c-12.1,11.1-24,22.5-32.6,36.9C926.4,2526.7,923.9,2528.7,920.5,2528.2z"/>
	<path fill="#FFFFFF" d="M883.3,2339.7c-10.3-17.6-29.4-12.2-46.2-17.7c6.4-3.4,10.5-6,14.9-7.9c10.8-4.6,20.2-11,27.2-20.5
		c1.3-1.7,3.1-3.1,4.8-4.5c1.8-1.5,4.2-1.9,6.2-1.1c2.7,1,1.5,3.8,1.2,5.6c-0.9,6.1-2,12.3-3.6,18.3
		C885.4,2320.7,884.2,2329.7,883.3,2339.7z"/>
	<path fill="#FFFFFF" d="M879.2,2380c-6.8,0.8-12.7,1.3-18.6,2.2c-4.6,0.7-5.3-1.5-4.7-5.4c1.2-8.7,9.7-14.7,21.5-13.5
		c15.7,1.7,29.9,8.1,43.7,15.3c4.7,2.4,3.2,7.6,2.3,11c-1,3.5-4.7,0.5-7.1,0C903.5,2387,891.5,2381.2,879.2,2380z"/>
	<path fill="#FFFFFF" d="M890.2,2493.4c-2.9-23,11.6-34.9,27.6-45.5c4.2-2.8,8.8-6,14.4-6.7c3-0.4,6.3-3.9,8.6,1.2
		c2.1,4.7,0.2,7.4-3.9,9.8c-9.4,5.5-18.5,11.5-25.4,20.2c-4,5.1-8.6,9.8-12.6,14.8C896.6,2490.3,894.4,2492.6,890.2,2493.4z"/>
	<path fill="#FFFFFF" d="M847.8,2363.6c-0.7-0.1-2.3-0.1-3.8-0.4c-4.8-0.8-12.7-1.7-12.3-5.5c0.5-5.4,5.3-11.2,11.6-13.4
		c9.6-3.4,19-1.4,28.1,2.1c2.1,0.8,5.3,1.4,4.1,5c-0.9,3-0.3,6.8-5,8C863.4,2361.2,856.1,2363.1,847.8,2363.6z"/>
	<path fill="#FFFFFF" d="M906.4,2419.2c-9.2-0.3-19.8-0.6-28.9-7.2c-2.3-1.6-5.1-3.7-4.5-6.7c0.8-3.6,4.6-2.6,7-2.5
		c11.5,0.4,23,1.3,33.8,5.6c3.5,1.4,8.7,2.3,7.2,7.9c-1.2,4.8-5.7,2.2-8.7,2.8C911,2419.4,909.4,2419.2,906.4,2419.2z"/>
	<path fill="#FFFFFF" d="M845.7,1835.2c-11.8-10.1-15.4-24.8-25-36.2C846.5,1798.2,850.9,1804.9,845.7,1835.2z"/>
	<path fill="#FFFFFF" d="M981.3,2517.4c-2.3,5.6-4,11.2-6.7,16.2c-4.8,8.9-10.7,11.2-20.6,8.8c-2.7-0.7-4.6-1.2-3.4-4.8
		C954.1,2527.7,968.5,2517.8,981.3,2517.4z"/>
	<path fill="#FFFFFF" d="M912.4,2432.9c-3.9,5.5-9.6,8.1-15.4,11C895.5,2432.8,899.3,2430.2,912.4,2432.9z"/>
	<path fill="#FDFBFC" d="M931.8,2336.3c-0.8,0.1-1.8,0.3-2.6,0.4c-6.4-0.8-13.7-0.3-12.8-10.8
		C924.1,2325.5,926.9,2332.6,931.8,2336.3z"/>
	<path fill="#FDFBFC" d="M593.5,1963.5c9.8,4.5,7.3,11.3,5.1,18.3C593.5,1976.7,592,1970.9,593.5,1963.5z"/>
	<path fill="#FDFBFC" d="M975.6,2332.9c-5.4,0-10.6,0-15.9,0C966.3,2326,971.6,2325.9,975.6,2332.9z"/>
	<path fill="#FDFBFC" d="M880.3,2353.2c2.2-4.5,3.8-7.6,8.2-5.1c1.1,0.7,2.7,2.9,2.4,3.4C888.4,2355.5,884.7,2353.2,880.3,2353.2z"
		/>
	<path fill="#FDFBFC" d="M924.8,2356.6c-0.5,2.9-3,2.8-5,3.2c-2.5,0.5-5.7,0.1-6.2-2.5c-0.6-2.9,2.8-3.5,5.1-3.8
		C921.3,2353.2,923.4,2354.1,924.8,2356.6z"/>
	<path fill="#FDFBFC" d="M850.2,2332.7c-3.1-1-6.2-2.2-9.3-3.2c7.4,0.2,14.9-1.5,22.1,1.8c-3.4,1.9-7.3-0.3-10.7,1.4
		C851.7,2332.7,851,2332.7,850.2,2332.7z"/>
	<path fill="#FDFBFC" d="M391.7,1859.6c-0.2-0.4-0.4-0.8-0.7-1.1c0,2.4-0.1,5-0.1,7.4c1.1,0.7,2.3,1.2,3.5,1.9
		c-0.1-1.2-0.1-2.5-0.2-3.8c0-7.3,0-14.5,0-23.8c-5.4,6.8-3,12.8-3.1,18.3C391.4,1858.7,391.6,1859.1,391.7,1859.6z"/>
	<path fill="#FFFFFF" d="M852.4,2332.7c3.3-2.3,7.1-0.7,10.7-1.4C860,2335.2,856,2332.1,852.4,2332.7z"/>
	<path fill="#FFFFFF" d="M913.5,2084.3c-3.1-19.4-12.7-25-31.7-19.5c-2.6,0.8-5.7,4.1-8-0.6c-1.7-3.5-1.1-6.2,2.4-8.6
		c2.3-1.7,5.7-4.3,4.1-7.6c-1.6-3.2-5.6-0.9-8.5-1.5c-2.6-0.5-5.1,0.8-6.7,2.7c-7.2,9.2-15.5,11-25.1,4.1c-2-1.3-3.3-1.8-5.8-0.4
		c-12.5,6.8-20.9,16-21.2,31.2c-0.1,2.9,0.7,6.3-1.7,8.9c-2.2,7-0.7,14.2-0.9,21.3c-0.2,4.8,2.8,6.8,7.2,6.5c4.6-0.5,6.4-3.5,6-7.9
		c-0.3-3.5-1.8-6.8-2-10.3c7.1,10.3,17,19,20.8,31.1c3.7,11.6,10.7,20.2,19.7,27.8c8,6.8,8.6,11,3.1,20.4c-3.2,5.3-4.4,10.9-3.8,17
		c1.8,17.3-2.9,33.4-8.2,49.4c-1.4,4.3-4,7.8-8.6,9.2c-6.4,1.9-12,5.3-18,7.9c-17.3,7.5-30.8,4.8-43.9-8.9
		c7.9,5.5,16.8,4.2,25.4,4.2c26.5-0.1,45.8-17.1,49.2-43.2c0.3-2.3,0.7-4.7-1.4-6c-2.2-1.3-4.2,0.2-6,1.5c-4.4,3.3-6.7,8.3-9.8,12.5
		c-13.6,17.8-45.3,23.1-64.1,10.7c-12-7.9-21.5-18.1-29.9-29.5c-3.2-4.3-6.7-8.5-12.6-8.9c-7.4-0.5-10-5.2-11.8-11.4
		c-4.5-15.9,9.8-42.3,25.7-47.6c2.7-0.9,5.3-0.6,6.9,1.3c8.8,10.6,22.1,12.1,33.7,17.4c6.8,3.2,12.7,2.8,17.9-2.6
		c4.5-4.7,9.9-7.4,16.2-8.7c5.3-1.1,10-3.6,13.2-8.2c2.5-3.8,2.6-7.6,0.2-11.4c-2.3-3.8-6-4.1-9.9-3.7c-3.3,0.4-5.7,2.3-8.2,4.3
		c-1.5,1.1-3.4,2.6-4.5-0.1c-2.4-5.5-7.2-9.8-6.8-17c0.8-11.4-1.3-22.7-3-34c-3-7.3-4.3-15.2-3.5-22.9c0.9-9.5,4.1-18.4,14.5-22
		c13.5-4.7,27-9.5,40.7-13.9c10.1-3.3,20.4-6.2,31.2-3.2c10.7,2.9,10.4,2.6,11.4-8.4c1-10.1-2.1-21.4,8.1-29.5c3.4-2.6-1-5-2.9-6.4
		c-7.7-5.5-10.1-13.1-4.6-20.4c4.1-5.4,3.1-9.5-0.7-13.6c-8.2-9-10.9-17.8-0.5-27.3c2.1-2,2.6-5.6,3.7-8.5c0.6-1.8,0.9-3.8-1.8-4.3
		c-2.3-0.4-4.8-3.2-6.8-0.5c-1.2,1.6-1.3,4-2.1,6.1c-0.9,2.5-1.5,5.2-5,6.1c-4.5,1.1-3.9-2.7-5.6-4.5c-3.1-3.3-5.4-7.6-11.4-6.8
		c-6.4,0.8-7.3-3.3-6.5-8.3c1.6-9.5,3.7-18.9,4.9-28.5c1.1-8.4,6.8-17.9-4.5-24.5c-1.5-0.9-2.2-5-4.9-4.4c-1.3,0.3-2.1,3.4-3,5.3
		c-6.4,13.3-4,27.5-4,41.5c0,3.8-0.8,6.9-4.3,8.6c-4.1,1.9-6.2-1.5-8.4-3.9c-7.8-8.6-12.8-19.1-19.1-28.6c-3.6-5.3-9.2-6.2-12.8-2.9
		c-3.3,3.1,2.3,5.7,4.6,8.3c6.8,7.7,15.1,13.9,20.1,23.2c1.1,2.2,1.6,3.8-0.1,5.8c-2.4,2.8-4,0.1-5.4-0.9c-3.8-2.8-7.3-5.7-10.8-8.9
		c-15.8-14.4-28-31.7-40.8-48.6c-4.2-5.4-9.1-9.8-16.8-9.4c-0.5,5.7,4.4,8.8,6.3,13.7c-11.4,4.7-18.1,14.8-26.3,23.3
		c-6,6.2-13.4,12.9-21.9,9.9c-10.4-3.7-19.6-10.8-29.3-16.4c14.8,2.2,26.3-3.9,37.1-11.7c2.1-1.6,6.9-1.7,5-6.2
		c-1.5-3.7-4.4-5.8-9-4.6c-7.5,2-15.2,3.6-22.8,5.2c-14.4,3-30.1,4.3-35.2,22.3c-0.2,0.5-0.9,0.8-1.4,1.1c1.8,5.3,7,4,10.7,5.5
		c4.7,1.8,10.4,1.6,14.8,8.3c-11-3.6-21.4-2.8-29.3-10c0.1-0.1,0.1-0.1,0.2-0.2c-1.2-0.5-2.5-0.9-3.5-1.6
		c-11.3-7.8-11.6-12.3-1.7-21.5c7.8-7.2,17.2-11.4,27.7-12.6c7.5-0.8,15.2-1.6,21.7-5.3c9.2-5.3,17.8-6.1,26.7,0
		c0.1,0.1,0.8-0.7,1.6-1.2c-1.4-4.8-6.8-6.9-8.9-12.1c6,0,11.3-0.8,16.8,1.6c5.8,2.5,11.4,1.1,16.7-2.7c11.6-8.3,13.7-7.9,25.8-0.2
		c5.7,3.7,10,10.2,20,11.1c-11-13.9-22.7-22.8-37.5-27.9c-2.3-0.8-3.8,0.4-5,1.6c-10.5,10.7-21.7,7.7-33.6,2.7
		c-19.4-8.2-38.4-6.5-56.1,5.3c-14.1,9.3-26.3,20.7-38.2,32.6c-22.8,22.8-37.9,48.8-40.9,81.3c-0.7,6.7,0.9,11.4,6.7,15
		c4.6,2.8,9.3,4.9,14.6,5.9c11.8,2.3,13.2,4.7,11.5,17.3c-0.6,3.9-1.8,5.2-5.8,5.3c-12.3,0.2-17.5-3.8-19.7-17.4
		c-0.6-3.8-1-6.2-5.2-5.3c-1.6,0.3-1.5,22.1,0.2,22.3c7.5,0.8,11.5,7.8,18.8,9.6c7.7,2,15.3,5.6,22,9.9c13.6,8.8,13.9,16,2.4,28
		c-11.1,11.5-13.2,34.1-4,47c5,6.9-2.9,7.3-5,10.5c-3,4.6-5.3,0.8-6.9-1.5c-3.8-5.3-6.9-11.1-10.9-16.2c-4-5.3-8.4-9.9-15.9-10.6
		c-4.9-0.5-5.5,3-7.1,5.9c-1.1,2-0.7,2.5,1.4,3.9c14.3,9.9,21.6,25.1,29.3,39.9c1.7,3.3,3.7,5.1,6.5,6.5c5.5-3.5,0.4-10,4.2-14.5
		c4.4,4.2,6.5,10.7,4.3,14.7c-2.1,3.9-8.8,4.1-13.9,1.4c0.1,0,0.3,0,0.4-0.1c-2-1.8-3.7-4.1-7.5-3.3c0.8,8.2,1.7,16.3,2.6,25
		c-5.7-1.7-6.8-8.7-13.4-9.6c0.5,7.5-5.7,14.9-1.5,21.7c9.4,15.2,22.4,27.6,36.4,38.6c2.2,1.7,4.5,2,7,0.6c2.8-1.5,2.5-3.9,2.2-6.5
		c-1.2-7.4-3.1-14.5-5.6-21.7c-0.8-2-3.8-5.1-0.2-6.3c3.5-1.1,4.6,2.4,5.2,5.3c2.5,12.2,7.5,23.7,10.6,35.8
		c3.2,12.6,6.3,25.3,12.9,36.9c13,23.2,31.5,41.7,50,60.1c12.2,12.2,27.3,21.8,39.6,34c28.4,28.3,66.7,23.1,94,11.6
		c27.5-11.5,36.3-37.8,43.2-64.1c6.7-25.8,4-53.7,17.4-78c2.3-4.1,3.8-8.6,5.2-13C920.2,2132.1,917.3,2108.2,913.5,2084.3z
		 M831,2069.2c-0.7-0.5-0.9-2.9-0.7-3.1c4.9-2.8,9.2,0.6,13.6,2C839.5,2069.9,835.3,2072.2,831,2069.2z M605.9,2126.8
		c8.6-1.3,11,3.5,14.6,9.7C612.7,2136,610.7,2130.9,605.9,2126.8z M742.1,2078.3c-2.2,4-6.3,5.6-9.6,9.2c-2.4-6,0-9.9,2.8-13.6
		c1.3-1.7,2.3-5.4,5.4-3.1C743,2072.5,743.7,2075.3,742.1,2078.3z M763.4,2028.4c-0.5-4.5-0.8-8.8-1.3-14.1c6.8,3.1,8,7.8,7.7,13.3
		c-0.1,2.2,0.2,4.5-2.8,4.9C763.7,2033,763.6,2030.6,763.4,2028.4z M768.1,2128.3c-0.3-0.7,1.1-2.9,1.7-2.9c3.8,0.1,5.8,2.6,7.3,6.5
		C773.4,2131.2,769.7,2132.1,768.1,2128.3z M779.5,2092.8c-1.4,0.6-3.2,0.6-4.1-1.1c-3.9-6.4-8.6-12.8-2.8-21.4
		c4.1,6.2,5.3,12.7,6.8,18.9C779.7,2090.3,782,2091.8,779.5,2092.8z M815.9,1895.4c-10.2-3.2-16.9-9.5-21.5-19.2
		C805.2,1877.1,814,1885.1,815.9,1895.4z M699.1,1891c2.9,0.7,5.8,0.8,8.7,1.1c8-3.6,16.3-6.1,25-7.6c6.8-1.1,12.9-3.1,18.3-8.3
		c11.2-10.7,15.4-10.3,28.6-1.1c9.6,6.7,17.4,14.6,23,25.4c-14.3,0.9-25.1,9.8-38.6,11.9c-6.1,0.9-12,1.9-18.2,1.7
		c-5.9-0.2-12.1-4.6-17.7,1c-0.4,0.4-2.3-0.3-3.2-0.9c-8.4-6.8-18-12.1-25.4-20.2c0,0,0,0,0,0c0,0-0.1,0-0.1,0
		c-0.8-0.7-2.3-1.2-2.5-2C696.7,1890.3,698,1890.7,699.1,1891z M686.6,1896.7c-16.7-0.6-31.3-4.9-40.9-19.7
		C652.8,1874.6,676.3,1886,686.6,1896.7z M639.2,1901.7c-8.5-0.5-10.4,4.5-10.5,11.7c0,2.8,1.1,7.2-2.9,8.1
		c-5.4,1.1-11.3,1.3-15.9-3c-3.1-2.9-5.5-6.2-3.4-10.7c1.9-3.9,3.8-7.8,6.1-11.5c3.9-6.9,5.1-13.5,0.4-21.1
		c9.8,5.8,22.4,3.2,30.9,11.4c2.1,2.1,5.6,4.1,4,7.7C646.2,1897.9,644,1902,639.2,1901.7z M647.6,2128.7
		C647.6,2128.8,647.6,2128.8,647.6,2128.7c-5.8-4.2-8.2-10.6-10.4-17.1c6,3.1,9.3,8.1,10.8,14.4c11.6,11.4,23.5,22.7,27,42.3
		C660,2157.3,656.2,2141.4,647.6,2128.7z M690.3,2075.2c-2,2.6-9.9,0.8-15.2,1.2c6.8-6.9,7.3-19.9,20.4-18.7
		c3.2,0.3,4.4-3.6,4.5-6.3c0.2-3.9-3.6-2.7-5.5-2.9c-8.2-0.9-15.9-0.8-22.4,6.1c-4.1,4.3-9.8,7.7-17.6,7.7
		c3.1-11.8,13.7-15.2,21.3-21.2c9.1-7.2,19.9-9.8,31.5-9.2c10.6,0.5,21.3,0.9,31.8,0.4c9.2-0.5,15.7,4.2,21.1,10.1
		c5.2,5.7-0.2,10.8-3.6,15.1c-2.1,2.5-5.5,4-8.3,6.1c-5.3,3.9-10.3,5.3-15.5-0.7c-3.4-4-6.5-4.6-9.5,1.3c-3.8,7.3-10,10.5-18.8,8.6
		C699.9,2072,695.2,2068.5,690.3,2075.2z M711.2,2214.7c-9.3-8.3-13.6-18.9-12.6-30.9C705.6,2192.2,711.7,2207.1,711.2,2214.7z
		 M713.3,2091c3.6-5.2,9-3.2,14.2-3.8c-2.6,6.8-8.3,5.8-13.3,6.2C713.8,2093.4,713,2091.5,713.3,2091z"/>
	<path fill="#151515" d="M537.3,2404.1c-2.1,5.3,2.8,12.3-5.3,14.8c-2.2,0.7-5.8,1.4-6.4-3C524.6,2407.6,529.6,2405.2,537.3,2404.1z
		"/>
	<path fill="#FFFFFF" d="M580.7,2362.5c11.1-20.5,16.9-41.5,12.7-64.6c-2.8-15.7-2.5-31.6-5.3-47.4c-1.8-9.8,0-21.2,4.4-31.9
		c-2.2,0.2-3.5,0-4.5,0.4c-8,3.1-9.4,0-6.9-7.1c3.2-9.1,6.7-18.1,9.2-27.4c5.4-19.6,1.8-27.1-16.2-35.5c-2-0.9-3.9-2.1-6-2.5
		c-5.9-1.2-7.5-4.6-5.5-10.1c6.2-0.2,9.3,6.7,15.8,7c-0.8-5.9-5.9-9.5-6.8-14.4c-1.3-6.6-8.8-6-10.9-10.3
		c-4.4-9.3-11.7-6.5-18.4-5.2c-5.7,1.1-7.7,4.7-3.5,10.1c2.7,3.5,6,7,5.5,12.3c-3.4,0.8-6-0.8-7.4-3c-7.5-11.7-14.8-23.9-18.3-37.2
		c-3.5-13.1-17.2-22.4-30.1-17.5c-2.8,1-5.7,5.3-8.6-1c-0.8-1.8-6.5,0.4-6.5,4.9c0,4,0.5,8.1,0.9,12.1c1.3,10.9,5.7,20.8,11.2,32.1
		c-4.7-0.9-8.3,1-9.9-3.8c-2.4-7-6.2-13.9-7.3-21.1c-5.1-33.1-7-66.4-5.5-99.9c0.4-7.5,1.5-14.8-0.2-22.3c-6.2-27.9-8-56.2-8.3-84.6
		c-0.1-13.7-1-27.4-3.2-41c-2.9-18.1-6.9-22.5-26-24.1c-4.7-0.8-8.4-0.8-13.8-0.9c-2.3-0.3-4.5,0.4-6.6,1.4c-1.3,0.6-2.4,3-2.2,3.4
		c1.3,1.7,3.3,0.6,5,0.3c6.8-1.2,13.7-1.1,20.6-0.1c11.1,2.3,16.1,9.5,16.3,20.4c0.2,8.3-0.1,16.6,0.1,25c0.1,4.1-1.9,6.2-5.4,7.4
		c0,0,0,0,0,0c0.1,0.1,0.2,0.2,0.3,0.4c-2.4,3.8-6.9,5.4-7.8,11c-0.7,4.4-6.1,4.3-10,4.7c-3.7,0.3-7.4,0.1-11.2,0.1
		c-1.2-4.1,4.4-4.1,3.9-7.4c-13.5-2.4-15.6-4.9-17.6-19.2c-0.1-0.2-0.2-0.4-0.3-0.6c-0.7-2.5-1.4-5-2.2-7.5
		c-0.9-1.1-1.4-2.9-3.5-1.9c-0.9,12.9-1.3,25.7,2.1,38.2c2.6,9.8,2.8,19.7,3,29.7c0.3,21.5,2,43,0.5,64.5
		c-0.4,6.7,1.8,13.6,3.5,20.2c9.1,35.4,7.2,71.2,6,107c-0.1,2.5,0.7,7.4-4,6.8c-4.8-0.7-3.8-4.6-2.9-8.2c3.5-14.4,3-29.1,2.4-43.8
		c-0.3-7.4-4.4-11.2-11.7-12.1c-9-1-16.3,3.7-23.9,6.9c-5,2.2-1.9,8.1-3.8,11.8c-1.6,3.1-3,6.2-4.4,9.3c-4.3,9.6-5.4,20.3-0.3,28.9
		c4.6,7.6,4.1,13.7,2.3,21.4c-2.7,10.7-4,22.2,6.1,30.2c5.5,4.3,6.1,9,5.7,15.5c-3.5-1.3-5-5.3-9.1-4c-0.6,8.1,1.7,15.9,2.2,23.9
		c1.1,16.5,3,33.1-5.2,48.6c-1.2,2.3-1.7,7.3-5.7,5.3c-3.6-1.7-6-5.7-4.9-10.2c0.6-2.4,2-4.6,3.2-6.8c2.1-3.6,6.8-8.2,5.8-10.2
		c-3.6-7.8-1.6-14.4,0.5-21.9c1.3-4.5-0.8-9.8-0.8-14.8c-0.1-18.9-4.5-37.5-5.1-56.3c-3.7-0.3-4.4,2.1-5.6,3.8
		c-7.4,10.3-13.6,21.6-22,31.2c-1.5,1.8-3.4,5.1-2.7,6.6c3.7,7.7-0.9,10.3-7.4,11.9c2.2,4.7,7.7,5.2,9.5,9.8
		c-3.6,0.3-6.7,0.5-9.8,0.8c-1.7,0.2-4.4-0.1-3.2,2.9c1.9,4.6-0.5,5.5-4.2,5.8c-4.3,0.4-4.5,3.4-4.4,6.8c0.1,4.9,1.7,9.1,3.9,13.3
		c11.8,22.6,21.2,46.2,22,71.9c0.6,16.5,8.4,26.6,21.4,34.7c20.1,12.6,37.3,28,49.6,48.6c2.8,4.7,6.6,8.7,11.4,12
		c11.4,7.5,23.5,11.6,37.1,9.8c6.5-0.8,4.6,4.2,5.4,7.3c1.3,5.1-2.4,4.1-5,3.8c-7.7-1-6.2,3.2-3.8,6.9c5.3,8.2,7.7,16.7,6.3,26.5
		c-0.8,5.8,3.4,9.8,8.3,8.9c10.1-1.7,20.8-1.2,30.2-5.6c24-11.4,49.4-20.2,68.9-39.9c6.2-6.4,13.9-11.1,8.8-21.7
		c-0.6-1.2-0.5-3.2,0-4.6C571.4,2385.6,574.8,2373.4,580.7,2362.5z M370.6,2128c-0.3-1.7,1.4-2.6,2.9-2.9c3.5-0.8,6.8-0.7,8.4,3.3
		c0.8,1.5,2,3,0.6,5.6c-2.1-0.7-3.8-1-5.5-1.7C374.5,2131.3,371.2,2131.2,370.6,2128z M389.4,2233.7c-7.5-6.5-6.9-16.8-13.7-23.2
		C388.1,2207.8,392.5,2211.8,389.4,2233.7z M394.7,2187.9c-2.6,1.4-5.3-1.6-5.8-4.5c-1.3-6.2,3-8,8.9-9.6
		C397.5,2179.2,400.1,2184.9,394.7,2187.9z M437.8,1917.5c2.4,0.7,3.4,3.7,3.2,6.3c-0.2,2.5-2.7,2.1-4.3,2.6
		c-4.9,1.7-9.7,2-16.1,0.5c3-2.4,5-3.9,7.6-6.1c-4.2-1.2-7.9-2.3-12.9-3.7C423.8,1913.2,430.8,1915.6,437.8,1917.5z M406.1,1994.8
		c0.1-2,2.4-2.4,4.1-3.3c9.9-4.7,27.5-6.4,34.1-3.2c-1.4,5-7.6,3.6-10.2,8.1c2.6,0.6,4.7,1,6.9,1.5c-0.6,0.8-0.8,1.7-1.1,1.7
		c-9.8,2.2-19.7,2.3-29.4-0.8C408.8,1998,406,1997.4,406.1,1994.8z M450.4,2000c1.4,6.9-2.3,9.2-6.9,11.1
		c-10.8,4.4-21.2,4.7-31.3-1.7C425.4,2008.3,438.6,2008.1,450.4,2000z M401.5,2163.8c-2.1-5.7,0.6-9.5,6-14.7
		c-0.5,11.1,3.9,18.6,10.1,26.4C408.9,2174.6,404,2171,401.5,2163.8z M438.4,2022.4c-4.5,1.1-8.9,1.9-14.5,0.2
		C429.6,2019.1,434.1,2020.1,438.4,2022.4z M443.2,2268.1c-0.4-15.9-5-30.6-11.5-44.8c-1.4-3.2-3.1-7.5,1.3-8.6c3.8-1,4.2,3.9,5,6.6
		c4.2,15.2,10.7,29.7,12.7,45.1c-1,3.3,1.4,7.7-3.6,8C443,2274.5,443.3,2270.7,443.2,2268.1z M451.3,2289.7
		c-2.9-0.3-6.3-0.8-6.8-3.6c-0.6-3.7,3.3-4.4,5.6-6.6C452,2283.1,452.3,2286.2,451.3,2289.7z M435.6,1977.9c-1.9-0.6-4.7-0.8-3.9-4
		c0.6-2.3,2.5-2.3,4.4-2.5c8.8-1.4,14.2,2.8,17.8,11.2C447.5,1980.9,441.5,1979.5,435.6,1977.9z M459.2,2117.5
		c10.1,9.5,18.8,16.7,20.5,31.3C466.9,2141.5,462.2,2131.6,459.2,2117.5z M520,2131c-7.3-6.4-18.8,0.8-23.6-9.4
		c17.1-5.2,29.5,2.5,42.4,26.4C526.8,2148.6,526.1,2136.4,520,2131z M529.6,2274.3c-7.5-16.3-5.1-68.1,4.4-75
		C532,2224.9,533.1,2248.9,529.6,2274.3z M526.5,2197.4c0.6-12.9,4-17.7,14-17.8C537.5,2187.4,535.6,2195.2,526.5,2197.4z
		 M554,2176.9c7.7,3,14.8,4.3,19.3,10.7C562.6,2191.5,557.6,2189,554,2176.9z"/>
	<path fill="#FFFFFF" d="M771.7,2188.9c-8.8,1.1-18.4,1-28-0.2c-7.8-1-11.4-3.4-8.6-11.9c3.2-10,5.4-20.5,8.3-30.6
		c1.6-5.5,11.4-5.1,16.8,1.5c9.1,11.2,20.3,19,33.9,23.7c4.1,1.4,8.1,3.3,12,5c2.5,1.1,5.4,2,5.3,5.6c-0.2,4.3-4,3.4-6.3,4
		C794.4,2188.8,783.4,2188.4,771.7,2188.9z"/>
	<path fill="#FFFFFF" d="M793,2211.6c-11.4,0.2-22.2-3-33-6.1c-3.5-1-7.7-2.6-6.8-7.4c0.8-4.4,5.2-2.9,7.8-2.8
		c24.9,1,48.9-4.5,73.2-8.4c3.1-0.5,6.2-0.5,9.4-0.8c2.8-0.2,4.9,0.6,5.5,3.7c0.6,2.7,0,4.8-2.6,6.3
		C829.7,2205.5,812.1,2211,793,2211.6z"/>
	<path fill="#FFFFFF" d="M781,2233.6c16.7-0.9,32.4-1.9,49-2.8C818.2,2242.8,791.4,2244.3,781,2233.6z"/>
	<path fill="#FFFFFF" d="M848.5,2171.8c3.6-2.6-2.7-10.6,5.7-10.7c1.9,0,6.5,0,5,4.7c-1.5,4.8-0.8,11.4-8.4,11.5
		C846.9,2177.3,849,2174,848.5,2171.8z"/>
	<path fill="#FFFFFF" d="M408.6,1840c-6.8,0.9-10.6,4.7-10.4,11.9c0.2,7.8,0.2,15.5,0.3,23.3c1.3,5.7,2,12.9,8.5,14.4
		c10.6,2.4,21.5,2.6,30.5-5.5c1-5.7,3.4-11.3,3.5-17.3C441.3,1842.5,437.2,1835.8,408.6,1840z M415.1,1877.9
		c6.1-1.8,11.4-1.4,16.8,0.9C426.3,1881.7,420.9,1882,415.1,1877.9z"/>
	<path fill="#FFFFFF" d="M592.5,2055.6c-2.3-1.6-4.4-3.2-7.6-1.5c-2.9,1.6-2.5,3.9-2.4,6.4c0.3,6.3-0.8,12.6-0.5,18.7
		c0.5,9.4,3.2,18.6,4.9,27.8c4.6-9.7,6.5-18.9,1.9-29.6c4.1,2.8,6.9,4.7,9.8,6.7C602.5,2071.8,600.1,2061.5,592.5,2055.6z
		 M590.3,2074.4c-2.9,0.3-2.7-1.6-2.6-3.6c0.2-2.3,1.7-3.2,3.8-3.2c2.3,0,3.3,1.1,3.3,3.5C594.7,2074.1,592.5,2074.2,590.3,2074.4z"
		/>
</g>
</svg>
